Coordinates
version=1
nRows=17
nColumns=24
inDegrees=yes

Units are S.I. units (second, meters, Newtons, ...)
Angles are in degrees.

endheader
time	pelvis_tilt	pelvis_list	pelvis_rotation	pelvis_tx	pelvis_ty	pelvis_tz	hip_flexion_r	hip_adduction_r	hip_rotation_r	knee_angle_r	ankle_angle_r	subtalar_angle_r	mtp_angle_r	hip_flexion_l	hip_adduction_l	hip_rotation_l	knee_angle_l	ankle_angle_l	subtalar_angle_l	mtp_angle_l	lumbar_extension	lumbar_bending	lumbar_rotation
      1.09150000	     -0.62898677	      2.59689488	     -3.32608178	      0.36030888	      1.07857710	      0.32163361	     12.36342050	     -6.50916501	     -6.16066139	    -67.95298136	     -0.09252412	     -7.04096357	      6.44972716	      9.75505530	      4.94770023	      1.21015783	    -17.56608582	      9.19602576	     -0.20999876	      1.75873187	    -14.80974752	     -4.34418934	     -0.69340701
      1.09566667	     -0.59592946	      2.42380781	     -3.26588442	      0.36561233	      1.07967770	      0.32136800	     12.85056710	     -6.31853583	     -6.29752040	    -67.71726919	      0.29756024	     -6.90470424	      6.43988038	      9.18809670	      4.79074421	      1.28492790	    -17.13929790	      9.23504862	     -0.13847123	      1.75966612	    -14.85640842	     -4.09380717	     -0.84209219
      1.09983333	     -0.59474185	      2.26551500	     -3.19900984	      0.37091987	      1.08067117	      0.32110048	     13.36645357	     -6.14223040	     -6.43817989	    -67.44245233	      0.70465219	     -6.70737534	      6.44013905	      8.65886337	      4.64766263	      1.36634582	    -16.71476782	      9.26689453	     -0.08011030	      1.76041938	    -14.86006587	     -3.85493545	     -0.99465385
      1.10400000	     -0.54985543	      2.10006305	     -3.12456258	      0.37619941	      1.08170895	      0.32081768	     13.82086049	     -5.96149594	     -6.59123499	    -67.10990595	      1.11641647	     -6.46898349	      6.44762107	      8.08077765	      4.49937202	      1.45331386	    -16.28149840	      9.29457985	     -0.02182344	      1.76133331	    -14.92221212	     -3.60683980	     -1.15839138
      1.10816667	     -0.53819941	      1.93642312	     -3.04200193	      0.38148987	      1.08264665	      0.32053101	     14.30069738	     -5.77943397	     -6.75108901	    -66.73095748	      1.52907845	     -6.19902995	      6.46307084	      7.54136306	      4.35021839	      1.54957741	    -15.85275056	      9.32093891	      0.03156183	      1.76226430	    -14.94424624	     -3.35593790	     -1.32188518
      1.11233333	     -0.53572872	      1.77487333	     -2.95772592	      0.38674828	      1.08351980	      0.32025505	     14.78501271	     -5.59477507	     -6.90632858	    -66.30839261	      1.94223207	     -5.89933903	      6.48387887	      7.02018477	      4.20023196	      1.64365342	    -15.43426677	      9.33534248	      0.08948458	      1.76279459	    -14.97195581	     -3.10391595	     -1.45573886
      1.11650000	     -0.52401640	      1.61053007	     -2.86839124	      0.39204966	      1.08436219	      0.31998023	     15.24076262	     -5.40967697	     -7.08000378	    -65.83138501	      2.34936195	     -5.62898193	      6.50480940	      6.48824281	      4.04313993	      1.70525521	    -15.01675564	      9.34567565	      0.15651429	      1.76297784	    -14.96503082	     -2.84536852	     -1.55992732
      1.12066667	     -0.46569385	      1.47355500	     -2.76534100	      0.39727061	      1.08522822	      0.31968009	     15.64346986	     -5.26362734	     -7.25932239	    -65.32213368	      2.79675462	     -5.19885184	      6.55709797	      5.89818739	      3.92747922	      1.86410621	    -14.56651433	      9.36180371	      0.14627913	      1.76451699	    -15.06032902	     -2.62139966	     -1.87415141
      1.12483333	     -0.44905159	      1.31092414	     -2.66625372	      0.40251715	      1.08598943	      0.31941826	     16.07558573	     -5.07563956	     -7.43326356	    -64.75321818	      3.18646521	     -4.83314064	      6.59118246	      5.37018816	      3.77090909	      1.96448416	    -14.16091804	      9.40384795	      0.20730711	      1.76588331	    -15.09681156	     -2.38220825	     -1.97754236
      1.12900000	     -0.43214310	      1.18370383	     -2.56359953	      0.40777525	      1.08666221	      0.31913012	     16.50558312	     -4.93847386	     -7.61876513	    -64.16606830	      3.61006956	     -4.42344982	      6.64220525	      4.83618581	      3.65568334	      2.07523601	    -13.73522237	      9.43521741	      0.23318536	      1.76732815	    -15.11440661	     -2.15195386	     -2.17822383
      1.13316667	     -0.44709018	      1.03546323	     -2.45816888	      0.41301357	      1.08725402	      0.31887448	     16.95568862	     -4.76252300	     -7.79314960	    -63.52106025	      4.00098481	     -4.04021573	      6.68612880	      4.35179762	      3.51016185	      2.17814582	    -13.33987284	      9.46037209	      0.27189919	      1.76863204	    -15.11278907	     -1.92839828	     -2.32003295
      1.13733333	     -0.40354183	      0.91763057	     -2.35726009	      0.41823837	      1.08786516	      0.31860740	     17.33928837	     -4.63348571	     -7.97564041	    -62.85236737	      4.40657399	     -3.62652659	      6.74457280	      3.79418095	      3.40200797	      2.28932199	    -12.91752666	      9.49053738	      0.29105198	      1.77031924	    -15.17002214	     -1.70776128	     -2.51735413
      1.14150000	     -0.42151503	      0.80260729	     -2.25452438	      0.42346253	      1.08831903	      0.31836601	     17.78183319	     -4.49718876	     -8.14908775	    -62.14454203	      4.79450363	     -3.22624267	      6.80486414	      3.31518460	      3.29109125	      2.39657915	    -12.51796115	      9.51897790	      0.30204955	      1.77189669	    -15.15557646	     -1.50458712	     -2.68733421
      1.14566667	     -0.40699734	      0.68808014	     -2.15417845	      0.42866699	      1.08876274	      0.31813725	     18.17840651	     -4.36120431	     -8.32060879	    -61.39629284	      5.17250653	     -2.83509464	      6.86951861	      2.80409465	      3.17884123	      2.49742176	    -12.12311005	      9.55276756	      0.32408515	      1.77425127	    -15.18736920	     -1.30483887	     -2.85818890
      1.14983333	     -0.42651924	      0.55497236	     -2.05545592	      0.43387840	      1.08912345	      0.31792937	     18.59440500	     -4.19356120	     -8.48442316	    -60.59047753	      5.51658027	     -2.48847371	      6.91430043	      2.34289055	      3.04017670	      2.56706827	    -11.75690691	      9.58305324	      0.36583536	      1.77590993	    -15.17700411	     -1.09112850	     -2.96483859
      1.15400000	     -0.42679746	      0.47793952	     -1.96181730	      0.43907766	      1.08941140	      0.31772930	     18.99679829	     -4.09843716	     -8.64446916	    -59.78719977	      5.88617689	     -2.08225173	      6.98687022	      1.84959943	      2.96618502	      2.67805658	    -11.36171322	      9.63678221	      0.37411077	      1.77961499	    -15.18748065	     -0.93000221	     -3.17694154
      1.15816667	     -0.44499830	      0.38984644	     -1.87098485	      0.44427090	      1.08961942	      0.31754664	     19.40395680	     -3.98264490	     -8.79698870	    -58.93503103	      6.22625034	     -1.72544627	      7.05787049	      1.38769078	      2.87609572	      2.76444902	    -10.99128831	      9.68190477	      0.38786522	      1.78351164	    -15.17631401	     -0.75797798	     -3.33476548
